
<svg version="1.2" xmlns="http://www.w3.org/2000/svg" viewBox="0 0 114 136" width="114" height="136">
	<title>&lt;Group&gt;</title>
	<style>
		.s0 { fill: #e10109 } 
		.s1 { fill: #666666 } 
		.s2 { fill: #ffffff } 
	</style>
	<g id="&lt;Group&gt;">
		<path id="&lt;Compound Path&gt;" fill-rule="evenodd" class="s0" d="m96.9 86.7c0 26.7-21.6 48.3-48.3 48.3-26.6 0-48.3-21.6-48.3-48.3 0-21.3 31-66.7 43.3-83.9 1.2-1.6 3-2.6 5-2.6 2 0 3.9 1 5 2.6 12.4 17.2 43.3 62.6 43.3 83.9zm-69.7 13.5c-7.7-6.4-5.1-16.3-5-16.8 0.6-2.2-0.6-4.6-2.9-5.2-2.2-0.6-4.5 0.6-5.2 2.9-0.2 0.6-4.3 15.5 7.7 25.6 0.8 0.7 1.7 1 2.7 1 1.2 0 2.4-0.5 3.2-1.5 1.5-1.8 1.3-4.4-0.5-6z"/>
		<path id="&lt;Path&gt;" class="s1" d="m77.5 6.9c17.8 0 32.2 14.5 32.2 32.3 0 17.7-14.4 32.2-32.2 32.2-17.8 0-32.2-14.5-32.2-32.2 0-17.8 14.4-32.3 32.2-32.3z"/>
		<path id="&lt;Compound Path&gt;" fill-rule="evenodd" class="s2" d="m77.5 3.6c9.8 0 18.7 4 25.2 10.4 6.4 6.4 10.4 15.3 10.4 25.2 0 9.8-4 18.7-10.4 25.1-6.5 6.4-15.4 10.4-25.2 10.4-9.8 0-18.7-4-25.1-10.4-6.5-6.4-10.4-15.3-10.4-25.1 0-9.9 3.9-18.8 10.4-25.2 6.4-6.4 15.3-10.4 25.1-10.4zm20.4 15.1c-5.2-5.2-12.4-8.4-20.4-8.4-7.9 0-15.1 3.2-20.4 8.5-5.2 5.2-8.4 12.4-8.4 20.4 0 7.9 3.2 15.1 8.4 20.4v-0.1c5.3 5.3 12.5 8.5 20.4 8.5 8 0 15.2-3.2 20.4-8.4 5.3-5.3 8.5-12.5 8.5-20.4 0-8-3.3-15.2-8.5-20.4z"/>
		<path id="&lt;Compound Path&gt;" fill-rule="evenodd" class="s2" d="m66.4 46.9l-0.9 2.5q-0.4 1.2-1.1 1.9-0.7 0.7-1.6 0.7-1.2 0-1.9-0.8-0.8-0.8-0.8-2 0-0.5 0.1-0.9 0-0.4 0.2-0.7l6.4-17.6q0.7-1.9 1.8-2.8 1-0.9 2.6-0.9 1.4 0 2.5 0.9 1.1 0.8 1.7 2.4l6.3 17.9q0.1 0.6 0.2 1 0.1 0.5 0.1 0.8 0 1.2-0.8 1.9-0.7 0.8-2 0.8-1.1 0-1.8-0.7-0.7-0.7-1.1-2.1l-0.7-2.3zm24.6-1.3v-4.8h-5v-3.3h5v-4.8h3.1v4.8h5v3.3h-5v4.8zm-22.9-3.9h5.9l-2.9-9.3z"/>
	</g>
</svg>