<svg xmlns="http://www.w3.org/2000/svg" xmlns:xlink="http://www.w3.org/1999/xlink" version="1.1" width="256" height="256" viewBox="0 0 256 256" xml:space="preserve">
<g style="stroke: none; stroke-width: 0; stroke-dasharray: none; stroke-linecap: butt; stroke-linejoin: miter; stroke-miterlimit: 10; fill: none; fill-rule: nonzero; opacity: 1;" transform="translate(1.4065934065934016 1.4065934065934016) scale(2.81 2.81)">
	<path d="M 44.984 0 c 0 0 -31.382 36.214 -31.382 58.601 C 13.602 75.915 27.687 90 45 90 c 17.313 0 31.398 -14.085 31.398 -31.399 C 76.398 36.217 44.984 0 44.984 0 z" style="stroke: none; stroke-width: 1; stroke-dasharray: none; stroke-linecap: butt; stroke-linejoin: miter; stroke-miterlimit: 10; fill: #880808FF; fill-rule: nonzero; opacity: 1;" transform=" matrix(1 0 0 1 0 0) " stroke-linecap="round"/>
	<path d="M 65.75 53.596" style="stroke: none; stroke-width: 1; stroke-dasharray: none; stroke-linecap: butt; stroke-linejoin: miter; stroke-miterlimit: 10; fill: rgb(255,255,255); fill-rule: nonzero; opacity: 1;" transform=" matrix(1 0 0 1 0 0) " stroke-linecap="round"/>
	<path d="M 71.472 61.517 H 60.028 c -1.214 0 -2.199 -0.985 -2.199 -2.199 c 0 -1.214 0.985 -2.199 2.199 -2.199 h 11.444 c 1.214 0 2.199 0.985 2.199 2.199 C 73.671 60.533 72.687 61.517 71.472 61.517 z" style="stroke: none; stroke-width: 1; stroke-dasharray: none; stroke-linecap: butt; stroke-linejoin: miter; stroke-miterlimit: 10; fill: rgb(255,255,255); fill-rule: nonzero; opacity: 1;" transform=" matrix(1 0 0 1 0 0) " stroke-linecap="round"/>
	<path d="M 49.849 61.517 h -6.364 c -1.214 0 -2.199 -0.985 -2.199 -2.199 v -9.243 c 0 -1.214 0.984 -2.199 2.199 -2.199 h 6.364 c 3.161 0 5.734 2.573 5.734 5.734 v 2.174 C 55.583 58.945 53.01 61.517 49.849 61.517 z M 45.684 57.119 h 4.165 c 0.736 0 1.335 -0.599 1.335 -1.335 v -2.174 c 0 -0.736 -0.599 -1.335 -1.335 -1.335 h -4.165 V 57.119 z" style="stroke: none; stroke-width: 1; stroke-dasharray: none; stroke-linecap: butt; stroke-linejoin: miter; stroke-miterlimit: 10; fill: rgb(255,255,255); fill-rule: nonzero; opacity: 1;" transform=" matrix(1 0 0 1 0 0) " stroke-linecap="round"/>
	<path d="M 49.849 70.761 h -6.364 c -1.214 0 -2.199 -0.985 -2.199 -2.199 v -9.243 c 0 -1.214 0.984 -2.199 2.199 -2.199 h 6.364 c 3.161 0 5.734 2.573 5.734 5.734 v 2.174 C 55.583 68.188 53.01 70.761 49.849 70.761 z M 45.684 66.362 h 4.165 c 0.736 0 1.335 -0.599 1.335 -1.335 v -2.174 c 0 -0.736 -0.599 -1.335 -1.335 -1.335 h -4.165 V 66.362 z" style="stroke: none; stroke-width: 1; stroke-dasharray: none; stroke-linecap: butt; stroke-linejoin: miter; stroke-miterlimit: 10; fill: rgb(255,255,255); fill-rule: nonzero; opacity: 1;" transform=" matrix(1 0 0 1 0 0) " stroke-linecap="round"/>
	<path d="M 36.486 70.555 c -0.853 0 -1.665 -0.499 -2.022 -1.333 l -5.725 -13.359 l -5.726 13.359 c -0.478 1.117 -1.77 1.633 -2.887 1.156 c -1.116 -0.478 -1.633 -1.772 -1.155 -2.887 l 7.747 -18.076 c 0.347 -0.809 1.142 -1.333 2.021 -1.333 l 0 0 c 0.879 0 1.674 0.524 2.021 1.333 l 7.746 18.076 c 0.478 1.116 -0.038 2.409 -1.155 2.887 C 37.068 70.498 36.775 70.555 36.486 70.555 z" style="stroke: none; stroke-width: 1; stroke-dasharray: none; stroke-linecap: butt; stroke-linejoin: miter; stroke-miterlimit: 10; fill: rgb(255,255,255); fill-rule: nonzero; opacity: 1;" transform=" matrix(1 0 0 1 0 0) " stroke-linecap="round"/>
	<path d="M 33.502 63.595 h -9.528 c -1.214 0 -2.199 -0.985 -2.199 -2.199 s 0.984 -2.199 2.199 -2.199 h 9.528 c 1.214 0 2.199 0.985 2.199 2.199 S 34.716 63.595 33.502 63.595 z" style="stroke: none; stroke-width: 1; stroke-dasharray: none; stroke-linecap: butt; stroke-linejoin: miter; stroke-miterlimit: 10; fill: rgb(255,255,255); fill-rule: nonzero; opacity: 1;" transform=" matrix(1 0 0 1 0 0) " stroke-linecap="round"/>
</g>
</svg>