<svg xmlns="http://www.w3.org/2000/svg" xmlns:xlink="http://www.w3.org/1999/xlink" version="1.1" width="256" height="256" viewBox="0 0 256 256" xml:space="preserve">
<g style="stroke: none; stroke-width: 0; stroke-dasharray: none; stroke-linecap: butt; stroke-linejoin: miter; stroke-miterlimit: 10; fill: none; fill-rule: nonzero; opacity: 1;" transform="translate(1.4065934065934016 1.4065934065934016) scale(2.81 2.81)">
	<path d="M 44.984 0 c 0 0 -31.382 36.214 -31.382 58.601 C 13.602 75.915 27.687 90 45 90 c 17.313 0 31.398 -14.085 31.398 -31.399 C 76.398 36.217 44.984 0 44.984 0 z" style="stroke: none; stroke-width: 1; stroke-dasharray: none; stroke-linecap: butt; stroke-linejoin: miter; stroke-miterlimit: 10; fill: rgb(136,0,0); fill-rule: nonzero; opacity: 1;" transform=" matrix(1 0 0 1 0 0) " stroke-linecap="round"/>
	<path d="M 71.472 57.273 h -3.676 v -3.676 c 0 -1.13 -0.916 -2.045 -2.045 -2.045 s -2.045 0.916 -2.045 2.045 v 3.676 h -3.676 c -1.13 0 -2.045 0.916 -2.045 2.045 c 0 1.13 0.916 2.045 2.045 2.045 h 3.676 v 3.676 c 0 1.13 0.916 2.045 2.045 2.045 s 2.045 -0.916 2.045 -2.045 v -3.676 h 3.676 c 1.13 0 2.045 -0.916 2.045 -2.045 C 73.518 58.189 72.602 57.273 71.472 57.273 z" style="stroke: none; stroke-width: 1; stroke-dasharray: none; stroke-linecap: butt; stroke-linejoin: miter; stroke-miterlimit: 10; fill: rgb(255,255,255); fill-rule: nonzero; opacity: 1;" transform=" matrix(1 0 0 1 0 0) " stroke-linecap="round"/>
	<path d="M 49.849 48.029 h -6.364 c -1.13 0 -2.045 0.916 -2.045 2.045 v 9.243 v 9.243 c 0 1.13 0.916 2.045 2.045 2.045 h 6.364 c 3.077 0 5.58 -2.503 5.58 -5.58 v -2.174 c 0 -1.34 -0.476 -2.571 -1.266 -3.535 c 0.79 -0.963 1.266 -2.194 1.266 -3.535 v -2.174 C 55.429 50.532 52.926 48.029 49.849 48.029 z M 45.531 52.12 h 4.318 c 0.821 0 1.489 0.668 1.489 1.489 v 2.174 c 0 0.821 -0.668 1.489 -1.489 1.489 h -4.318 V 52.12 z M 51.338 65.027 c 0 0.821 -0.668 1.489 -1.489 1.489 h -4.318 v -5.153 h 4.318 c 0.821 0 1.489 0.668 1.489 1.489 V 65.027 z" style="stroke: none; stroke-width: 1; stroke-dasharray: none; stroke-linecap: butt; stroke-linejoin: miter; stroke-miterlimit: 10; fill: rgb(255,255,255); fill-rule: nonzero; opacity: 1;" transform=" matrix(1 0 0 1 0 0) " stroke-linecap="round"/>
	<path d="M 35.388 60.603 c -0.001 -0.002 -0.002 -0.005 -0.003 -0.007 l -4.766 -11.121 c -0.323 -0.752 -1.062 -1.239 -1.88 -1.239 c -0.818 0 -1.558 0.487 -1.88 1.239 l -4.766 11.12 c -0.002 0.004 -0.003 0.007 -0.005 0.011 l -2.977 6.945 c -0.445 1.039 0.036 2.241 1.074 2.686 c 0.263 0.113 0.536 0.167 0.805 0.167 c 0.794 0 1.549 -0.465 1.881 -1.24 l 2.452 -5.721 h 6.83 l 2.452 5.721 c 0.445 1.038 1.646 1.519 2.686 1.074 c 1.039 -0.444 1.52 -1.647 1.075 -2.686 L 35.388 60.603 z M 27.077 59.35 l 1.662 -3.877 L 30.4 59.35 H 27.077 z" style="stroke: none; stroke-width: 1; stroke-dasharray: none; stroke-linecap: butt; stroke-linejoin: miter; stroke-miterlimit: 10; fill: rgb(255,255,255); fill-rule: nonzero; opacity: 1;" transform=" matrix(1 0 0 1 0 0) " stroke-linecap="round"/>
</g>
</svg>