<svg xmlns="http://www.w3.org/2000/svg" xmlns:xlink="http://www.w3.org/1999/xlink" version="1.1" width="256" height="256" viewBox="0 0 256 256" xml:space="preserve">
<g style="stroke: none; stroke-width: 0; stroke-dasharray: none; stroke-linecap: butt; stroke-linejoin: miter; stroke-miterlimit: 10; fill: none; fill-rule: nonzero; opacity: 1;" transform="translate(1.4065934065934016 1.4065934065934016) scale(2.81 2.81)">
	<path d="M 44.984 0 c 0 0 -31.382 36.214 -31.382 58.601 C 13.602 75.915 27.687 90 45 90 c 17.313 0 31.398 -14.085 31.398 -31.399 C 76.398 36.217 44.984 0 44.984 0 z" style="stroke: none; stroke-width: 1; stroke-dasharray: none; stroke-linecap: butt; stroke-linejoin: miter; stroke-miterlimit: 10; fill: rgb(136,0,0); fill-rule: nonzero; opacity: 1;" transform=" matrix(1 0 0 1 0 0) " stroke-linecap="round"/>
	<path d="M 65.32 57.318 h -5.626 v -5.626 c 0 -1.104 -0.896 -2 -2 -2 s -2 0.896 -2 2 v 5.626 h -5.625 c -1.104 0 -2 0.896 -2 2 s 0.896 2 2 2 h 5.625 v 5.625 c 0 1.104 0.896 2 2 2 s 2 -0.896 2 -2 v -5.625 h 5.626 c 1.104 0 2 -0.896 2 -2 S 66.424 57.318 65.32 57.318 z" style="stroke: none; stroke-width: 1; stroke-dasharray: none; stroke-linecap: butt; stroke-linejoin: miter; stroke-miterlimit: 10; fill: rgb(255,255,255); fill-rule: nonzero; opacity: 1;" transform=" matrix(1 0 0 1 0 0) " stroke-linecap="round"/>
	<path d="M 43.576 61.374 c -0.001 -0.002 -0.001 -0.003 -0.002 -0.005 l -6.496 -15.158 C 36.762 45.477 36.04 45 35.24 45 s -1.523 0.477 -1.838 1.212 l -6.495 15.156 c -0.001 0.003 -0.002 0.005 -0.003 0.008 l -4.06 9.473 c -0.435 1.016 0.035 2.191 1.051 2.626 c 1.015 0.436 2.19 -0.035 2.626 -1.05 l 3.546 -8.274 h 10.348 l 3.546 8.274 c 0.325 0.758 1.063 1.213 1.839 1.213 c 0.263 0 0.53 -0.053 0.787 -0.163 c 1.015 -0.435 1.485 -1.61 1.05 -2.626 L 43.576 61.374 z M 31.78 60.15 l 3.46 -8.073 l 3.46 8.073 H 31.78 z" style="stroke: none; stroke-width: 1; stroke-dasharray: none; stroke-linecap: butt; stroke-linejoin: miter; stroke-miterlimit: 10; fill: rgb(255,255,255); fill-rule: nonzero; opacity: 1;" transform=" matrix(1 0 0 1 0 0) " stroke-linecap="round"/>
</g>
</svg>