<svg xmlns="http://www.w3.org/2000/svg" xmlns:xlink="http://www.w3.org/1999/xlink" version="1.1" width="256" height="256" viewBox="0 0 256 256" xml:space="preserve">
<g style="stroke: none; stroke-width: 0; stroke-dasharray: none; stroke-linecap: butt; stroke-linejoin: miter; stroke-miterlimit: 10; fill: none; fill-rule: nonzero; opacity: 1;" transform="translate(1.4065934065934016 1.4065934065934016) scale(2.81 2.81)">
	<path d="M 44.984 0 c 0 0 -31.382 36.214 -31.382 58.601 C 13.602 75.915 27.687 90 45 90 c 17.313 0 31.398 -14.085 31.398 -31.399 C 76.398 36.217 44.984 0 44.984 0 z" style="stroke: none; stroke-width: 1; stroke-dasharray: none; stroke-linecap: butt; stroke-linejoin: miter; stroke-miterlimit: 10; fill: rgb(136,0,0); fill-rule: nonzero; opacity: 1;" transform=" matrix(1 0 0 1 0 0) " stroke-linecap="round"/>
	<path d="M 65.383 57.318 h -5.625 v -5.626 c 0 -1.104 -0.896 -2 -2 -2 s -2 0.896 -2 2 v 5.626 h -5.626 c -1.104 0 -2 0.896 -2 2 s 0.896 2 2 2 h 5.626 v 5.625 c 0 1.104 0.896 2 2 2 s 2 -0.896 2 -2 v -5.625 h 5.625 c 1.104 0 2 -0.896 2 -2 S 66.487 57.318 65.383 57.318 z" style="stroke: none; stroke-width: 1; stroke-dasharray: none; stroke-linecap: butt; stroke-linejoin: miter; stroke-miterlimit: 10; fill: rgb(255,255,255); fill-rule: nonzero; opacity: 1;" transform=" matrix(1 0 0 1 0 0) " stroke-linecap="round"/>
	<path d="M 37.188 45 h -8.481 c -1.104 0 -2 0.896 -2 2 v 12.318 v 12.318 c 0 1.104 0.896 2 2 2 h 8.481 c 3.7 0 6.71 -3.01 6.71 -6.71 v -2.898 c 0 -1.834 -0.741 -3.498 -1.938 -4.71 c 1.197 -1.212 1.938 -2.876 1.938 -4.71 V 51.71 C 43.898 48.01 40.888 45 37.188 45 z M 30.708 49 h 6.481 c 1.494 0 2.71 1.216 2.71 2.71 v 2.898 c 0 1.494 -1.216 2.71 -2.71 2.71 h -6.481 V 49 z M 39.898 66.927 c 0 1.494 -1.216 2.71 -2.71 2.71 h -6.481 v -8.318 h 6.481 c 1.494 0 2.71 1.216 2.71 2.71 V 66.927 z" style="stroke: none; stroke-width: 1; stroke-dasharray: none; stroke-linecap: butt; stroke-linejoin: miter; stroke-miterlimit: 10; fill: rgb(255,255,255); fill-rule: nonzero; opacity: 1;" transform=" matrix(1 0 0 1 0 0) " stroke-linecap="round"/>
</g>
</svg>