
<svg version="1.2" xmlns="http://www.w3.org/2000/svg" viewBox="0 0 113 136" width="113" height="136">
	<title>&lt;Group&gt;</title>
	<style>
		.s0 { fill: #e10109 } 
		.s1 { fill: #666666 } 
		.s2 { fill: #ffffff } 
	</style>
	<g id="&lt;Group&gt;">
		<path id="&lt;Compound Path&gt;" fill-rule="evenodd" class="s0" d="m96.8 86.7c0 26.7-21.6 48.3-48.3 48.3-26.7 0-48.3-21.6-48.3-48.3 0-21.3 30.9-66.7 43.3-83.9 1.1-1.6 3-2.6 5-2.6 2 0 3.8 1 5 2.6 12.3 17.2 43.3 62.6 43.3 83.9zm-69.7 13.5c-7.8-6.4-5.2-16.3-5-16.8 0.6-2.2-0.7-4.6-2.9-5.2-2.3-0.6-4.6 0.6-5.2 2.9-0.2 0.6-4.4 15.5 7.6 25.6 0.8 0.7 1.8 1 2.7 1 1.2 0 2.4-0.5 3.3-1.5 1.5-1.8 1.2-4.4-0.5-6z"/>
		<path id="&lt;Path&gt;" class="s1" d="m77.4 6.9c17.8 0 32.2 14.5 32.2 32.3 0 17.7-14.4 32.2-32.2 32.2-17.8 0-32.2-14.5-32.2-32.2 0-17.8 14.4-32.3 32.2-32.3z"/>
		<path id="&lt;Compound Path&gt;" fill-rule="evenodd" class="s2" d="m77.4 3.6c9.8 0 18.7 4 25.1 10.4 6.5 6.4 10.4 15.3 10.4 25.2 0 9.8-3.9 18.7-10.4 25.1-6.4 6.4-15.3 10.4-25.1 10.4-9.8 0-18.7-4-25.2-10.4-6.4-6.4-10.4-15.3-10.4-25.1 0-9.9 4-18.8 10.4-25.2 6.5-6.4 15.4-10.4 25.2-10.4zm20.4 15.2c-5.2-5.3-12.5-8.5-20.4-8.5-8 0-15.2 3.2-20.4 8.4v0.1c-5.2 5.2-8.5 12.4-8.5 20.4 0 7.9 3.3 15.1 8.5 20.4 5.2 5.2 12.4 8.4 20.4 8.4 7.9 0 15.2-3.2 20.4-8.5v0.1c5.2-5.3 8.4-12.5 8.4-20.4 0-8-3.2-15.2-8.4-20.4z"/>
		<path id="&lt;Compound Path&gt;" fill-rule="evenodd" class="s2" d="m90.8 45.6v-4.8h-4.9v-3.3h4.9v-4.8h3.2v4.8h4.9v3.3h-4.9v4.8zm-24.9 6q-2.2 0-3-0.8-0.9-0.7-0.9-2.8v-17.3q0-2.3 0.9-3.1 0.9-0.9 3.1-0.9h4.6q3.7 0 5.7 1.6 2.1 1.7 2.1 4.6 0 1.8-0.8 3-0.7 1.2-2.3 1.9 2.4 0.6 3.7 2.2 1.3 1.7 1.3 4.1 0 3.5-2.3 5.5-2.3 2-6.5 2zm1.8-4.9h2.9q1.8 0 2.8-0.7 1-0.7 1-2.1 0-1.4-1-2.1-0.9-0.7-2.9-0.7h-2.8zm0-10.3h2.4q1.3 0 2-0.7 0.8-0.6 0.8-1.7 0-1.1-0.8-1.8-0.8-0.7-2.1-0.7h-2.3z"/>
	</g>
</svg>