<svg xmlns="http://www.w3.org/2000/svg" xmlns:xlink="http://www.w3.org/1999/xlink" version="1.1" width="256" height="256" viewBox="0 0 256 256" xml:space="preserve">
<g style="stroke: none; stroke-width: 0; stroke-dasharray: none; stroke-linecap: butt; stroke-linejoin: miter; stroke-miterlimit: 10; fill: none; fill-rule: nonzero; opacity: 1;" transform="translate(1.4065934065934016 1.4065934065934016) scale(2.81 2.81)">
	<path d="M 44.984 0 c 0 0 -31.382 36.214 -31.382 58.601 C 13.602 75.915 27.687 90 45 90 c 17.313 0 31.398 -14.085 31.398 -31.399 C 76.398 36.217 44.984 0 44.984 0 z" style="stroke: none; stroke-width: 1; stroke-dasharray: none; stroke-linecap: butt; stroke-linejoin: miter; stroke-miterlimit: 10; fill: rgb(136,0,0); fill-rule: nonzero; opacity: 1;" transform=" matrix(1 0 0 1 0 0) " stroke-linecap="round"/>
	<path d="M 63.36 61.318 H 49.109 c -1.104 0 -2 -0.896 -2 -2 s 0.896 -2 2 -2 H 63.36 c 1.104 0 2 0.896 2 2 S 64.465 61.318 63.36 61.318 z" style="stroke: none; stroke-width: 1; stroke-dasharray: none; stroke-linecap: butt; stroke-linejoin: miter; stroke-miterlimit: 10; fill: rgb(255,255,255); fill-rule: nonzero; opacity: 1;" transform=" matrix(1 0 0 1 0 0) " stroke-linecap="round"/>
	<path d="M 35.427 73.637 h -0.293 c -4.659 0 -8.449 -3.79 -8.449 -8.449 V 53.449 c 0 -4.659 3.79 -8.449 8.449 -8.449 h 0.293 c 4.659 0 8.449 3.79 8.449 8.449 v 11.738 C 43.876 69.847 40.085 73.637 35.427 73.637 z M 35.134 49 c -2.453 0 -4.449 1.996 -4.449 4.449 v 11.738 c 0 2.453 1.996 4.449 4.449 4.449 h 0.293 c 2.453 0 4.449 -1.996 4.449 -4.449 V 53.449 c 0 -2.453 -1.996 -4.449 -4.449 -4.449 H 35.134 z" style="stroke: none; stroke-width: 1; stroke-dasharray: none; stroke-linecap: butt; stroke-linejoin: miter; stroke-miterlimit: 10; fill: rgb(255,255,255); fill-rule: nonzero; opacity: 1;" transform=" matrix(1 0 0 1 0 0) " stroke-linecap="round"/>
</g>
</svg>