
<svg version="1.2" xmlns="http://www.w3.org/2000/svg" viewBox="0 0 113 136" width="113" height="136">
	<title>&lt;Compound Path&gt;</title>
	<style>
		.s0 { fill: #e10109 } 
		.s1 { fill: #666666 } 
		.s2 { fill: #ffffff } 
	</style>
	<path id="&lt;Compound Path&gt;" fill-rule="evenodd" class="s0" d="m96.7 87.4c0 26.7-21.6 48.3-48.3 48.3-26.7 0-48.3-21.6-48.3-48.3 0-21.3 31-66.7 43.3-83.9 1.2-1.6 3-2.6 5-2.6 2 0 3.8 1 5 2.6 12.3 17.2 43.3 62.6 43.3 83.9zm-69.7 13.5c-7.7-6.4-5.1-16.3-5-16.8 0.6-2.2-0.7-4.6-2.9-5.2-2.3-0.6-4.6 0.6-5.2 2.9-0.2 0.6-4.3 15.5 7.6 25.6 0.8 0.7 1.8 1 2.7 1 1.2 0 2.5-0.5 3.3-1.5 1.5-1.8 1.2-4.4-0.5-6z"/>
	<path id="&lt;Path&gt;" class="s1" d="m78.3 8.6c17.8 0 32.2 14.5 32.2 32.3 0 17.7-14.4 32.2-32.2 32.2-17.8 0-32.2-14.5-32.2-32.2 0-17.8 14.4-32.3 32.2-32.3z"/>
	<path id="&lt;Compound Path&gt;" fill-rule="evenodd" class="s2" d="m77.3 5.3c9.8 0 18.7 4 25.1 10.4h0.1c6.4 6.4 10.4 15.3 10.4 25.2 0 9.8-4 18.7-10.4 25.1h-0.1c-6.4 6.4-15.3 10.4-25.1 10.4-9.8 0-18.7-4-25.2-10.4-6.4-6.4-10.4-15.3-10.4-25.1 0-9.9 4-18.8 10.4-25.2 6.5-6.4 15.4-10.4 25.2-10.4zm20.4 15.1c-5.2-5.2-12.4-8.4-20.4-8.4-8 0-15.2 3.2-20.4 8.5-5.2 5.2-8.4 12.4-8.4 20.4 0 7.9 3.2 15.1 8.4 20.4 5.2 5.2 12.4 8.4 20.4 8.4 8 0 15.2-3.2 20.4-8.4 5.2-5.3 8.4-12.5 8.4-20.4 0-8-3.2-15.2-8.4-20.4z"/>
	<path id="&lt;Compound Path&gt;" fill-rule="evenodd" class="s2" d="m87.5 41.5v-3.3c8.5 0 4.5 0 13 0v3.3c-8.5 0-4.5 0-13 0zm-27.1-1.6q0-5.9 3.3-9.6 3.4-3.6 8.9-3.6 5.4 0 8.8 3.6 3.4 3.7 3.4 9.6 0 5.9-3.4 9.5-3.3 3.6-8.8 3.6-5.5 0-8.9-3.6-3.3-3.6-3.3-9.5zm6.1 0q0 3.5 1.7 5.6 1.6 2.1 4.4 2.1 2.7 0 4.4-2.1 1.6-2.1 1.6-5.6 0-3.6-1.6-5.7-1.7-2.1-4.4-2.1-2.8 0-4.5 2.1-1.6 2.1-1.6 5.7z"/>
</svg>