
<svg version="1.2" xmlns="http://www.w3.org/2000/svg" viewBox="0 0 1356 1311" width="60" height="58">
	<title>vecteezy_otp-authentication-security-illustration-concept_6736564</title>
	<style>
		.s0 { fill: #bb91e8 } 
		.s1 { fill: #956cc0 } 
		.s2 { fill: #9f91e5 } 
		.s3 { fill: #7566bf } 
		.s4 { fill: #b8aaff } 
		.s5 { fill: #af83de } 
		.s6 { fill: #ececec } 
		.s7 { fill: #996bca } 
		.s8 { fill: #ffffff } 
	</style>
	<g id="_Artboards_">
	</g>
	<g id="Layer 1">
		<path id="&lt;Path&gt;" class="s0" d="m850.55 1304.17c173.14 0 313.5-135.2 313.5-301.96 0-166.77-140.36-301.96-313.5-301.96-173.14 0-313.49 135.19-313.49 301.96 0 166.76 140.35 301.96 313.49 301.96z"/>
		<path id="&lt;Path&gt;" class="s1" d="m850.46 1251.35c142.91 0 258.76-111.58 258.76-249.22 0-137.65-115.85-249.23-258.76-249.23-142.91 0-258.75 111.58-258.75 249.23 0 137.64 115.84 249.22 258.75 249.22z"/>
		<path id="&lt;Path&gt;" class="s0" d="m853.28 700.25h-15.61c-5.23 0-9.47 4.09-9.47 9.13v69.72c0 5.04 4.24 9.12 9.47 9.12h15.61c5.23 0 9.47-4.08 9.47-9.12v-69.72c0-5.04-4.24-9.13-9.47-9.13z"/>
		<path id="&lt;Path&gt;" class="s0" d="m858.25 1216.11h-15.61c-5.24 0-9.48 4.09-9.48 9.13v69.72c0 5.04 4.24 9.12 9.48 9.12h15.61c5.23 0 9.47-4.08 9.47-9.12v-69.72c0-5.04-4.24-9.13-9.47-9.13z"/>
		<path id="&lt;Path&gt;" class="s0" d="m1163.97 1007.71v-15.04c0-5.04-4.25-9.13-9.47-9.13h-72.39c-5.24 0-9.48 4.09-9.48 9.13v15.04c0 5.04 4.24 9.12 9.48 9.12h72.39c5.22 0 9.47-4.08 9.47-9.12z"/>
		<path id="&lt;Path&gt;" class="s0" d="m850.46 862.96h-5.78c-5.26 0-9.53 2.63-9.53 5.88v137.54c0 3.25 4.27 5.88 9.53 5.88h5.78c5.27 0 9.53-2.63 9.53-5.88v-137.54c0-3.25-4.26-5.88-9.53-5.88z"/>
		<path id="&lt;Path&gt;" class="s0" d="m945.45 1003.07v-5.56c0-5.07-1.95-9.18-4.35-9.18h-101.6c-2.4 0-4.35 4.11-4.35 9.18v5.56c0 5.07 1.95 9.19 4.35 9.19h101.6c2.4 0 4.35-4.12 4.35-9.19z"/>
		<path id="&lt;Compound Path&gt;" class="s0" d="m305.27 940.89l-11.02-0.9c0.42-5.78 0.95-11.76 1.59-17.64l10.98 1.33c-0.61 5.76-1.15 11.56-1.55 17.21zm3.67-34.38l-10.92-1.74c0.82-5.88 1.75-11.76 2.76-17.47l10.86 2.15c-1 5.61-1.9 11.35-2.7 17.06zm5.98-33.99l-10.79-2.58c1.22-5.78 2.56-11.56 3.97-17.21l10.68 3c-1.37 5.51-2.68 11.15-3.86 16.79zm8.35-33.39l-10.56-3.48c1.66-5.69 3.44-11.35 5.28-16.83l10.41 3.95c-1.8 5.35-3.52 10.85-5.13 16.36zm10.94-32.44l-10.21-4.45c2.13-5.52 4.43-11 6.75-16.27l9.97 5c-2.24 5.12-4.43 10.41-6.51 15.75zm13.81-31.05l-9.69-5.54c2.68-5.26 5.54-10.46 8.39-15.45l9.41 6.16c-2.83 4.8-5.54 9.78-8.11 14.85zm16.91-29.11l-9.03-6.76c3.25-4.89 6.65-9.68 10.14-14.25l8.59 7.39c-3.3 4.37-6.57 8.94-9.7 13.62zm20.24-26.49l-8.06-7.95c3.85-4.38 7.87-8.62 11.94-12.62l7.49 8.62c-3.86 3.75-7.69 7.8-11.35 11.95zm23.54-23.04l-6.85-9.21c4.43-3.69 9-7.24 13.63-10.59l6.15 9.75c-4.38 3.17-8.72 6.53-12.91 10.05zm26.6-18.9l-5.41-10.23c4.85-2.9 9.9-5.64 15-8.16l4.65 10.59c-4.85 2.44-9.64 5.05-14.25 7.8zm29.01-14.3l-3.89-10.99c5.2-2.07 10.57-3.98 15.97-5.66l3.12 11.25c-5.17 1.61-10.27 3.42-15.21 5.4zm30.73-9.65l-2.39-11.45c5.37-1.28 10.92-2.35 16.48-3.3l1.7 11.59c-5.33 0.88-10.65 1.94-15.8 3.16zm31.78-5.28l-1.05-11.68c5.46-0.54 11.08-0.95 16.72-1.18l0.44 11.77c-5.44 0.17-10.86 0.56-16.12 1.09zm32.65-1.86l-0.67-11.7c5.45-0.35 10.86-0.86 16.09-1.49l1.26 11.64c-5.43 0.67-11.04 1.19-16.69 1.55zm33.24-4.12l-1.91-11.55c5.34-1 10.63-2.17 15.71-3.52l2.64 11.38c-5.3 1.41-10.83 2.65-16.42 3.69zm32.64-8.58l-3.44-11.15c5.12-1.78 10.15-3.76 14.98-5.88l4.27 10.82c-5.09 2.23-10.35 4.33-15.8 6.21zm31.12-13.96l-5.15-10.37c4.7-2.64 9.31-5.52 13.7-8.57l6.05 9.81c-4.67 3.25-9.59 6.36-14.6 9.13zm28.33-19.7l-6.92-9.15c4.11-3.53 8.11-7.27 11.88-11.2l7.75 8.37c-4.05 4.24-8.31 8.27-12.71 12.02zm24.22-25.22l-8.48-7.52c3.33-4.27 6.65-8.8 9.63-13.46l9.11 6.65c-3.23 5.01-6.68 9.85-10.26 14.38zm19.21-29.59l-9.61-5.76c2.57-4.85 5.02-9.94 7.27-15.13l10.03 4.89c-2.36 5.54-4.96 10.92-7.69 16.05zm14.16-32.53l-10.37-4.08c1.84-5.22 3.54-10.68 5.08-16.21l10.59 3.32c-1.6 5.81-3.39 11.52-5.3 16.97zm9.53-34.25l-10.77-2.6c1.11-5.47 2.22-11.12 3.12-16.82l10.9 1.93c-0.94 5.95-2.03 11.84-3.25 17.52zm5.54-35.11l-10.97-1.33c0.59-5.6 1.1-11.38 1.42-17.14l11.03 0.75c-0.32 5.99-0.82 11.94-1.44 17.74zm2.21-35.46l-11.07-0.21q0-2 0-3.94c0-4.71 0.3-9.41 0.77-14.05l10.99 1.27q-0.67 6.42-0.72 12.87 0.07 2.04 0.02 4.08zm3.5-33.35l-10.74-2.79q2.05-8.88 5.17-17.4l10.29 4.27q-2.86 7.8-4.74 15.94zm11.39-31.04l-9.69-5.64q4.15-7.97 9.25-15.29l8.87 6.97q-4.65 6.7-8.45 13.98zm18.64-26.78l-7.94-8.15q5.98-6.58 12.74-12.23l6.85 9.19q-6.18 5.2-11.66 11.21zm24.63-20.65l-5.71-10.04c4.76-3.04 9.63-6.02 14.5-8.83l5.28 10.31c-4.73 2.75-9.41 5.63-14.08 8.58zm28.47-16.46l-4.86-10.59c5-2.59 10.1-5.09 15.17-7.43l4.43 10.75c-4.96 2.35-9.91 4.77-14.76 7.29zm29.73-13.71l-3.93-10.97c5.2-2.09 10.5-4.09 15.75-5.88l3.46 11.14c-5.11 1.75-10.25 3.69-15.29 5.73zm30.77-10.75l-2.95-11.3c5.36-1.58 10.82-3.04 16.22-4.33l2.43 11.44c-5.23 1.3-10.52 2.71-15.7 4.19zm31.57-7.55l-1.89-11.55c5.47-1.01 11.08-1.9 16.55-2.61l1.35 11.63c-5.33 0.75-10.71 1.6-16.01 2.58zm80.62-4.1c-5.36-0.43-10.8-0.73-16.16-0.88l0.3-11.76c5.54 0.15 11.17 0.47 16.71 0.92zm-48.51-0.11l-0.8-11.69c5.54-0.44 11.15-0.72 16.71-0.86l0.26 11.76c-5.39 0.14-10.83 0.42-16.17 0.84z"/>
		<path id="&lt;Path&gt;" class="s1" d="m88.22 13.76h521.55c20.82 0 40.79 8.78 55.52 24.41 14.72 15.64 22.99 36.84 22.99 58.94v1123.7c0 22.1-8.27 43.31-22.99 58.94-14.73 15.63-34.7 24.42-55.52 24.42h-521.55c-20.83 0-40.8-8.79-55.52-24.42-14.73-15.62-23-36.83-23.01-58.93v-1123.69c0-22.11 8.27-43.32 23-58.95 14.73-15.64 34.7-24.42 55.53-24.42z"/>
		<path id="&lt;Path&gt;" class="s0" d="m111.37 34.01h475.23c20.82 0 40.79 8.78 55.52 24.41 14.73 15.64 22.99 36.84 22.99 58.95v1083.17c0 22.11-8.26 43.31-22.99 58.94-14.73 15.63-34.7 24.42-55.52 24.42h-475.23c-20.82 0-40.79-8.79-55.52-24.42-14.72-15.63-23-36.83-23-58.94v-1083.17c0.01-22.11 8.28-43.31 23-58.94 14.73-15.63 34.7-24.42 55.52-24.42z"/>
		<path id="&lt;Path&gt;" class="s1" d="m167.15 26.29h363.68v23.23c0 14.39-5.38 28.19-14.97 38.36-9.58 10.18-22.57 15.9-36.13 15.9h-261.46c-13.55 0-26.54-5.71-36.13-15.89-9.58-10.17-14.96-23.97-14.96-38.36v-23.24z"/>
		<path id="&lt;Path&gt;" class="s2" d="m1353.02 145.17v205.6c0 5.45-2.04 10.68-5.67 14.54-3.64 3.86-8.56 6.03-13.7 6.03h-311.45c-5.14 0-10.07-2.17-13.7-6.03-3.63-3.86-5.67-9.09-5.68-14.54v-205.6c0.01-5.46 2.05-10.69 5.68-14.55 3.63-3.86 8.56-6.03 13.7-6.03h311.45c3.51-0.01 6.96 1.01 9.97 2.94 2.87 1.82 5.25 4.41 6.9 7.5 1.64 3.09 2.51 6.59 2.5 10.14z"/>
		<path id="&lt;Path&gt;" class="s3" d="m1343.62 127.53l-165.7 116.44-165.83-116.35c-1.86 1.2-3.51 2.72-4.88 4.51l169 118.59 1.71 1.18 170.62-119.97c-1.4-1.75-3.06-3.24-4.92-4.4z"/>
		<path id="&lt;Path&gt;" class="s4" d="m483.55 841.75h-267.76c-5.73 0-10.36 4.63-10.36 10.36v63.99c0 5.72 4.63 10.36 10.36 10.36h267.76c5.72 0 10.36-4.64 10.36-10.36v-63.99c0-5.73-4.64-10.36-10.36-10.36z"/>
		<path id="&lt;Compound Path&gt;" fill-rule="evenodd" class="s5" d="m311.46 889.26q0-1.14-0.35-2.03-0.33-0.88-1.19-1.62-0.87-0.73-2.43-1.42-1.54-0.7-3.95-1.44-2.63-0.81-4.86-1.79-2.2-1.02-3.84-2.33-1.65-1.34-2.56-3.06-0.91-1.75-0.91-4.02 0-2.26 0.94-4.1 0.95-1.85 2.7-3.19 1.77-1.37 4.18-2.1 2.4-0.76 5.31-0.76 4.1 0 7.06 1.52 2.99 1.51 4.58 4.07 1.62 2.56 1.62 5.64h-6.3q0-1.82-0.78-3.21-0.76-1.42-2.33-2.23-1.55-0.8-3.93-0.8-2.24 0-3.74 0.68-1.49 0.68-2.23 1.84-0.73 1.17-0.73 2.64 0 1.04 0.48 1.89 0.48 0.84 1.47 1.57 0.98 0.71 2.48 1.35 1.49 0.62 3.52 1.21 3.06 0.91 5.33 2.02 2.28 1.09 3.8 2.48 1.52 1.39 2.28 3.17 0.76 1.74 0.75 3.97 0 2.33-0.93 4.2-0.94 1.84-2.68 3.16-1.72 1.29-4.15 2-2.41 0.68-5.37 0.68-2.66 0-5.24-0.71-2.55-0.7-4.65-2.15-2.1-1.46-3.34-3.64-1.24-2.2-1.24-5.13h6.35q0 1.79 0.61 3.05 0.63 1.27 1.75 2.08 1.11 0.79 2.58 1.16 1.49 0.38 3.18 0.38 2.23 0 3.72-0.63 1.52-0.64 2.28-1.77 0.76-1.14 0.76-2.63zm23.45 9.99q-3.03 0-5.48-0.99-2.44-1.01-4.16-2.81-1.69-1.79-2.6-4.22-0.91-2.43-0.91-5.24v-1.01q-0.01-3.21 0.93-5.82 0.94-2.61 2.61-4.45 1.67-1.87 3.95-2.86 2.27-0.99 4.93-0.99 2.93 0 5.14 0.99 2.2 0.99 3.64 2.78 1.47 1.77 2.18 4.23 0.73 2.45 0.73 5.41v2.61h-17.96q0.09 1.3 0.45 2.46 0.51 1.51 1.47 2.65 0.96 1.14 2.33 1.8 1.36 0.63 3.11 0.63 2.2 0 3.92-0.89 1.72-0.88 2.99-2.5l3.21 3.11q-0.88 1.29-2.31 2.48-1.41 1.17-3.46 1.9-2.02 0.73-4.71 0.73zm4.94-16.75v-0.48q-0.05-1.65-0.66-3.08-0.58-1.45-1.8-2.33-1.21-0.89-3.23-0.89-1.53 0-2.71 0.66-1.16 0.63-1.95 1.85-0.79 1.21-1.21 2.93-0.16 0.64-0.25 1.34zm16.82 16.25h-6.09v-27.38h5.74l0.2 3.3q0.07-0.08 0.13-0.16 1.44-1.75 3.44-2.68 2-0.97 4.45-0.97 1.98 0 3.57 0.56 1.62 0.53 2.76 1.75 1.16 1.21 1.77 3.16 0.61 1.92 0.61 4.73v17.69h-6.13v-17.72q0.01-1.97-0.58-3.11-0.56-1.16-1.64-1.64-1.06-0.51-2.66-0.51-1.57 0-2.8 0.66-1.25 0.66-2.11 1.8-0.36 0.5-0.66 1.06zm39.5-38.86h6.12v38.86h-5.54l-0.3-2.93q-1.25 1.59-3.01 2.48-1.87 0.96-4.38 0.96-2.48 0-4.48-1.03-1.97-1.04-3.36-2.92-1.39-1.87-2.13-4.4-0.73-2.55-0.73-5.54v-0.53q0-3.11 0.73-5.67 0.74-2.58 2.13-4.43 1.39-1.87 3.39-2.85 2-1.02 4.5-1.02 2.48 0 4.35 0.97 1.55 0.79 2.71 2.15zm-11.71 24.95v0.53q0 1.87 0.32 3.49 0.36 1.62 1.09 2.86 0.74 1.21 1.9 1.92 1.19 0.69 2.83 0.69 2.08 0 3.42-0.91 1.34-0.91 2.1-2.46 0.79-1.57 1.06-3.49v-4.58q-0.15-1.5-0.63-2.79-0.46-1.28-1.24-2.25-0.78-0.98-1.94-1.51-1.15-0.56-2.71-0.56-1.67 0-2.84 0.71-1.16 0.71-1.92 1.94-0.73 1.25-1.09 2.89-0.35 1.64-0.35 3.52z"/>
		<path id="&lt;Path&gt;" class="s6" d="m537.06 337.36v198.66l-169.64 91.84-9.5 5.12-4.79 2.59-5.01-2.72-9.51-5.12-169.46-91.62v-198.72c0.01-3.38 1.66-6.62 4.59-9 2.92-2.39 6.88-3.73 11.01-3.73h336.7c4.13 0 8.09 1.33 11.01 3.71 2.93 2.38 4.58 5.62 4.6 8.99z"/>
		<path id="&lt;Path&gt;" class="s7" d="m469.5 459.39h-41.07c-2.97 0-5.37 2.35-5.37 5.25v40.11c0 2.9 2.4 5.25 5.37 5.25h41.07c2.97 0 5.38-2.35 5.38-5.25v-40.11c0-2.9-2.41-5.25-5.38-5.25z"/>
		<path id="&lt;Path&gt;" class="s7" d="m282.96 459.39h-41.07c-2.97 0-5.37 2.35-5.37 5.25v40.11c0 2.9 2.4 5.25 5.37 5.25h41.07c2.97 0 5.37-2.35 5.37-5.25v-40.11c0-2.9-2.4-5.25-5.37-5.25z"/>
		<path id="&lt;Path&gt;" class="s7" d="m344.93 459.39h-41.07c-2.97 0-5.37 2.35-5.37 5.25v40.11c0 2.9 2.4 5.25 5.37 5.25h41.07c2.97 0 5.38-2.35 5.38-5.25v-40.11c0-2.9-2.41-5.25-5.38-5.25z"/>
		<path id="&lt;Path&gt;" class="s7" d="m407.32 459.39h-41.07c-2.97 0-5.37 2.35-5.37 5.25v40.11c0 2.9 2.4 5.25 5.37 5.25h41.07c2.97 0 5.37-2.35 5.37-5.25v-40.11c0-2.9-2.4-5.25-5.37-5.25z"/>
		<path id="&lt;Path&gt;" class="s8" d="m255.3 493.52l5.31-6.96-7.84-2.27 1.34-4.15 7.79 2.98-0.35-8.78h4.4l-0.4 8.96 7.66-2.99 1.35 4.23-8 2.3 5.19 6.81-3.57 2.58-4.68-7.34-4.61 7.14z"/>
		<path id="&lt;Path&gt;" class="s8" d="m317.48 493.52l5.31-6.96-7.84-2.27 1.34-4.15 7.79 2.98-0.35-8.78h4.4l-0.4 8.96 7.66-2.99 1.35 4.23-8 2.3 5.19 6.81-3.57 2.58-4.68-7.34-4.61 7.14z"/>
		<path id="&lt;Path&gt;" class="s8" d="m379.66 493.52l5.31-6.96-7.84-2.27 1.35-4.15 7.78 2.98-0.35-8.78h4.41l-0.41 8.96 7.67-2.99 1.34 4.23-8 2.3 5.19 6.81-3.57 2.58-4.68-7.34-4.61 7.14z"/>
		<path id="&lt;Path&gt;" class="s8" d="m441.84 493.52l5.31-6.96-7.84-2.27 1.35-4.15 7.79 2.98-0.36-8.78h4.41l-0.41 8.96 7.67-2.99 1.34 4.23-8 2.3 5.19 6.81-3.57 2.58-4.68-7.34-4.61 7.14z"/>
		<path id="&lt;Path&gt;" class="s7" d="m230.73 414.25l-9.76-32.05h6.01l4.09 14.49c1.16 4.04 2.15 7.81 2.95 11.71h0.1c0.8-3.82 1.88-7.71 3.08-11.6l4.39-14.65h5.88l-10.45 32.06z"/>
		<path id="&lt;Path&gt;" class="s7" d="m267.65 400.04h-11.41v9.42h12.72v4.8h-18.18v-32.06h17.56v4.8h-12.1v8.27h11.38z"/>
		<path id="&lt;Compound Path&gt;" fill-rule="evenodd" class="s7" d="m273.84 382.62q4.13-0.68 8.32-0.66c4.36 0 7.3 0.76 9.32 2.56 0.86 0.8 1.54 1.79 1.98 2.91 0.45 1.11 0.66 2.32 0.62 3.53-0.02 1.77-0.55 3.5-1.53 4.94-0.98 1.44-2.35 2.52-3.94 3.1v0.13c2.16 0.85 3.46 3.1 4.22 6.19q0.88 4.56 2.38 8.94h-5.69q-1.33-3.69-2.03-7.57c-0.84-4.19-2.29-5.5-5.45-5.61h-2.73v13.18h-5.46zm5.45 14.17h3.28c3.71 0 6.04-2.09 6.04-5.28 0-3.52-2.33-5.14-5.9-5.14q-1.73-0.05-3.42 0.29z"/>
		<path id="&lt;Path&gt;" class="s7" d="m304.83 382.2v32.06h-5.46v-32.06z"/>
		<path id="&lt;Path&gt;" class="s7" d="m311.13 382.2h17.45v4.8h-11.93v8.85h11.11v4.8h-11.11v13.61h-5.46z"/>
		<path id="&lt;Path&gt;" class="s7" d="m339.49 382.2v32.06h-5.45v-32.06z"/>
		<path id="&lt;Path&gt;" class="s7" d="m367.41 413.35c-2.47 1.06-5.13 1.55-7.79 1.45-9.56 0-15.41-6.37-15.41-16.13 0-10.56 6.89-16.94 16.13-16.94 2.52-0.09 5.03 0.41 7.34 1.45l-1.21 4.67c-1.87-0.85-3.88-1.27-5.91-1.25-6.14 0-10.58 4.1-10.58 11.81 0 7.03 3.9 11.59 10.54 11.59 2.05 0.03 4.09-0.37 6-1.18z"/>
		<path id="&lt;Compound Path&gt;" fill-rule="evenodd" class="s7" d="m378.48 405.17l-2.61 9.09h-5.69l9.68-32.06h7.04l9.82 32.06h-5.93l-2.73-9.09zm8.64-4.42l-2.37-7.9c-0.59-1.95-1.08-4.14-1.52-5.99h-0.05c-0.45 1.85-0.91 4.1-1.44 5.99l-2.33 7.9z"/>
		<path id="&lt;Path&gt;" class="s7" d="m403.06 387.1h-8.6v-4.9h22.84v4.9h-8.7v27.16h-5.46z"/>
		<path id="&lt;Path&gt;" class="s7" d="m426.31 382.2v32.06h-5.45v-32.06z"/>
		<path id="&lt;Compound Path&gt;" fill-rule="evenodd" class="s7" d="m459.43 397.89c0 10.75-6.14 16.88-14.48 16.88-8.34 0-13.88-6.89-13.88-16.31 0-9.84 5.81-16.8 14.33-16.8 8.83 0 14.03 7.06 14.03 16.23zm-22.55 0.48c0 6.52 3.1 11.69 8.38 11.69 5.28 0 8.34-5.23 8.34-11.94 0-6.04-2.82-11.75-8.34-11.75-5.51 0-8.38 5.38-8.38 12z"/>
		<path id="&lt;Path&gt;" class="s7" d="m464.17 414.26v-32.06h6.28l7.79 13.74q2.9 5.2 5.15 10.75h0.09c-0.35-4.27-0.49-8.42-0.49-13.31v-11.18h5.11v32.06h-5.7l-7.89-14.07q-3.02-5.38-5.46-11.09h-0.13c0.23 4.13 0.27 8.38 0.27 13.65v11.46z"/>
		<path id="&lt;Path&gt;" class="s3" d="m566.37 486.23v10.42l-29.22 20.54-163.11 114.67-7.44-5.2 170.55-119.88 26.58-18.7z"/>
		<path id="&lt;Path&gt;" class="s3" d="m562.01 763.77c-1.49 3.38-3.49 6.48-5.92 9.19l-23-16.16-168.55-118.26-5.13 3.63-5.01 3.52-2.12 1.45-2.07-1.45-0.18-0.13-4.99-3.51-5.2-3.65-168.51 118.43-22.97 16.14c-2.44-2.7-4.45-5.81-5.93-9.2l24.87-17.47 163-114.59-163.03-114.39-29.21-20.49v-10.42l2.65 1.86 26.56 18.63 170.44 119.61 9.55 6.68 5.04 3.54 4.82-3.37 9.55-6.68 7.44 5.2 163.08 114.48z"/>
		<path id="&lt;Path&gt;" class="s3" d="m566.37 479.54v6.69l-2.64 1.86-26.58 18.69v-47.78z"/>
		<path id="&lt;Path&gt;" class="s3" d="m167.27 459.15v47.74l-26.56-18.63-2.65-1.86v-6.71z"/>
		<path id="&lt;Path&gt;" class="s2" d="m556.09 772.95q-2.08 2.3-4.66 3.95c-2.63 1.73-5.66 2.65-8.76 2.66h-380.9c-3.05-0.02-6.04-0.91-8.65-2.59-1.75-1.09-3.34-2.44-4.74-4l22.98-16.14 168.5-118.43 5.2 3.65 5 3.5 0.18 0.13 2.07 1.45 2.12-1.45 5.01-3.51 5.13-3.63 168.55 118.26z"/>
		<path id="&lt;Path&gt;" class="s2" d="m565.3 496.08v245.48c0.07 7.47-1.43 14.85-4.36 21.64l-24.9-17.48-163.08-114.47 163.11-114.66z"/>
		<path id="&lt;Path&gt;" class="s2" d="m330.3 631.7l-163 114.59-24.87 17.48c-2.94-6.78-4.43-14.17-4.37-21.64v-245.3l29.21 20.48z"/>
	</g>
</svg>